<?xml version="1.0" standalone="no"?>
<!DOCTYPE svg PUBLIC "-//W3C//DTD SVG 20010904//EN"
 "http://www.w3.org/TR/2001/REC-SVG-20010904/DTD/svg10.dtd">
<svg version="1.0" xmlns="http://www.w3.org/2000/svg"
 width="520.000000pt" height="520.000000pt" viewBox="0 0 520.000000 520.000000"
 preserveAspectRatio="xMidYMid meet">

<g transform="translate(0.000000,520.000000) scale(0.100000,-0.100000)"
fill="#000000" stroke="none">
<path d="M243 4706 c-91 -29 -166 -97 -210 -191 l-28 -60 0 -1855 0 -1855 29
-63 c37 -79 114 -152 191 -181 l56 -21 2309 0 c2305 0 2309 0 2364 21 113 42
197 149 216 275 13 93 13 3554 0 3647 -17 118 -85 213 -189 264 l-56 28 -2320
2 c-1889 1 -2328 -1 -2362 -11z m77 -171 c35 -18 50 -43 50 -85 0 -42 -15 -67
-51 -86 -40 -20 -82 -11 -114 28 -31 36 -32 76 -4 112 36 45 73 55 119 31z
m370 0 c35 -18 50 -43 50 -85 0 -42 -15 -67 -51 -86 -40 -20 -82 -11 -114 28
-31 36 -32 76 -4 112 36 45 73 55 119 31z m370 0 c35 -18 50 -43 50 -85 0 -42
-15 -67 -51 -86 -40 -20 -82 -11 -114 28 -31 36 -32 76 -4 112 36 45 73 55
119 31z m3888 -5 c58 -36 65 -104 16 -151 -25 -23 -31 -24 -231 -27 -217 -3
-250 2 -278 42 -17 24 -20 79 -5 106 23 43 54 49 265 50 183 0 203 -2 233 -20z
m-52 -382 c43 -23 81 -71 94 -116 14 -51 14 -3193 0 -3244 -13 -45 -51 -93
-94 -116 -29 -16 -176 -17 -2306 -17 l-2275 0 -40 23 c-22 13 -52 39 -65 59
l-25 37 -3 1615 c-2 1457 -1 1620 13 1658 18 48 72 100 113 109 15 3 32 7 37
9 6 2 1025 3 2265 2 2109 -2 2257 -3 2286 -19z"/>
<path d="M1785 3569 c-37 -10 -69 -39 -92 -82 -17 -30 -18 -96 -18 -1022 0
-948 1 -992 19 -1028 10 -20 33 -47 50 -60 43 -31 134 -30 196 2 76 40 1603
923 1633 945 39 28 77 95 77 135 0 45 -22 91 -61 128 -42 40 -1616 950 -1684
975 -55 19 -75 20 -120 7z"/>
</g>
</svg>
