<?xml version="1.0" standalone="no"?>
<!DOCTYPE svg PUBLIC "-//W3C//DTD SVG 20010904//EN"
 "http://www.w3.org/TR/2001/REC-SVG-20010904/DTD/svg10.dtd">
<svg version="1.0" xmlns="http://www.w3.org/2000/svg"
 width="2560.000000pt" height="2560.000000pt" viewBox="0 0 2560.000000 2560.000000"
 preserveAspectRatio="xMidYMid meet">
<metadata>
Created by potrace 1.16, written by Peter Selinger 2001-2019
</metadata>
<g transform="translate(0.000000,2560.000000) scale(0.100000,-0.100000)"
fill="#000000" stroke="none">
<path d="M1849 22460 c-376 -60 -717 -204 -1014 -429 -89 -67 -329 -305 -395
-391 -234 -306 -376 -647 -425 -1018 -22 -167 -22 -15150 0 -15312 50 -370
182 -697 398 -987 85 -113 264 -298 383 -395 293 -238 679 -406 1067 -462 97
-15 1126 -16 10870 -16 10653 0 10763 0 10889 20 382 59 726 206 1023 439 96
75 341 321 401 403 233 318 378 691 414 1064 14 154 14 15047 -1 15182 -15
143 -54 327 -95 449 -76 227 -222 492 -373 677 -71 86 -241 252 -337 328 -295
234 -650 387 -1044 448 -128 20 -176 20 -10887 19 -10391 -1 -10762 -2 -10874
-19z m2441 -3050 l0 -1220 -1225 0 -1225 0 0 898 c0 544 4 932 10 986 22 187
119 348 270 447 77 51 177 88 262 98 40 5 486 9 991 10 l917 1 0 -1220z
m15070 -6445 l0 -7665 -6610 0 -6610 0 0 7665 0 7665 6610 0 6610 0 0 -7665z
m3795 7642 c176 -51 316 -163 393 -317 74 -148 72 -112 72 -1162 l0 -938
-1225 0 -1225 0 0 1220 0 1221 963 -3 c874 -3 967 -5 1022 -21z m-18865 -5497
l0 -1220 -1225 0 -1225 0 0 1220 0 1220 1225 0 1225 0 0 -1220z m19330 0 l0
-1220 -1225 0 -1225 0 0 1220 0 1220 1225 0 1225 0 0 -1220z m-19330 -4295 l0
-1215 -1225 0 -1225 0 0 1215 0 1215 1225 0 1225 0 0 -1215z m19330 0 l0
-1215 -1225 0 -1225 0 0 1215 0 1215 1225 0 1225 0 0 -1215z m-19330 -4295 l0
-1220 -922 0 c-518 0 -955 5 -996 10 -271 35 -489 264 -522 546 -6 54 -10 445
-10 987 l0 897 1225 0 1225 0 0 -1220z m19330 272 c0 -917 -1 -951 -20 -1027
-55 -217 -211 -374 -436 -441 -54 -16 -140 -18 -1026 -21 l-968 -4 0 1221 0
1220 1225 0 1225 0 0 -948z"/>
<path d="M10840 15959 c-75 -8 -134 -29 -205 -74 -70 -44 -121 -105 -164 -194
l-36 -76 -3 -2950 c-1 -1984 1 -2966 8 -2998 17 -82 60 -158 124 -223 142
-142 346 -179 523 -95 32 16 186 120 343 233 987 708 1318 945 1580 1133 162
116 489 350 725 520 237 170 459 329 495 355 36 26 259 185 495 354 237 170
454 331 483 360 181 175 181 488 0 662 -73 71 -4037 2911 -4118 2951 -76 37
-158 51 -250 42z"/>
</g>
</svg>
